<?xml version="1.0" standalone="no"?><!DOCTYPE svg PUBLIC "-//W3C//DTD SVG 1.1//EN" "http://www.w3.org/Graphics/SVG/1.1/DTD/svg11.dtd"><svg t="1636945944500" class="icon" viewBox="0 0 1024 1024" version="1.1" xmlns="http://www.w3.org/2000/svg" p-id="2834" xmlns:xlink="http://www.w3.org/1999/xlink" width="128" height="128"><defs><style type="text/css">@font-face { font-family: element-icons; src: url("chrome-extension://moombeodfomdpjnpocobemoiaemednkg/fonts/element-icons.woff") format("woff"), url("chrome-extension://moombeodfomdpjnpocobemoiaemednkg/fonts/element-icons.ttf ") format("truetype"); }
</style></defs><path d="M960 486.4h-39.722667A409.6 409.6 0 0 0 537.6 103.68V64a25.6 25.6 0 1 0-51.2 0v39.68a409.6 409.6 0 0 0-382.72 382.72H64a25.6 25.6 0 0 0 0 51.2h39.722667a409.6 409.6 0 0 0 382.72 382.72v39.68a25.6 25.6 0 1 0 51.2 0v-39.68a409.6 409.6 0 0 0 382.72-382.72h39.637333a25.6 25.6 0 0 0 0-51.2z m-448 384a358.4 358.4 0 1 1 358.4-358.4 358.826667 358.826667 0 0 1-358.4 358.4z m0-512a153.6 153.6 0 1 0 153.6 153.6A153.6 153.6 0 0 0 512 358.4z m0 256a102.4 102.4 0 1 1 102.4-102.4 102.4 102.4 0 0 1-102.4 102.4z" fill="" p-id="2835"></path></svg>